<?xml version="1.0" encoding="utf-8"?>
<!-- Generator: Adobe Illustrator 16.0.0, SVG Export Plug-In . SVG Version: 6.00 Build 0)  -->
<!DOCTYPE svg PUBLIC "-//W3C//DTD SVG 1.1//EN" "http://www.w3.org/Graphics/SVG/1.1/DTD/svg11.dtd">
<svg version="1.1" xmlns="http://www.w3.org/2000/svg" xmlns:xlink="http://www.w3.org/1999/xlink" x="0px" y="0px" width="296px"
	 height="94.665px" viewBox="0 0 296 94.665" enable-background="new 0 0 296 94.665" xml:space="preserve">
<g id="logo_直" display="none">
	<g display="inline">
		<path fill="none" stroke="#C30D23" stroke-width="10" stroke-linecap="round" stroke-miterlimit="10" d="M268.272,214.005
			c-55.141,0-100,44.86-100,100c0,55.141,44.859,100,100,100c55.14,0,100-44.859,100-100c0-0.334-0.01-0.667-0.012-1"/>
		<g>
			
				<line fill="none" stroke="#C30D23" stroke-width="10" stroke-linecap="round" stroke-miterlimit="10" x1="219.522" y1="285.755" x2="219.522" y2="342.255"/>
			
				<line fill="none" stroke="#C30D23" stroke-width="10" stroke-linecap="round" stroke-miterlimit="10" x1="252.022" y1="253.005" x2="252.022" y2="375.005"/>
			
				<line fill="none" stroke="#C30D23" stroke-width="10" stroke-linecap="round" stroke-miterlimit="10" x1="284.523" y1="274.005" x2="284.523" y2="354.005"/>
			
				<line fill="none" stroke="#C30D23" stroke-width="10" stroke-linecap="round" stroke-miterlimit="10" x1="317.021" y1="291.505" x2="317.021" y2="336.505"/>
		</g>
	</g>
	<text transform="matrix(1 0 0 1 175.8242 491.0869)" display="inline" font-family="'Raleway-Bold'" font-size="72">Wavv</text>
	<text transform="matrix(1 0 0 1 225 526.418)" display="inline" fill="#C30D23" font-family="'Raleway'" font-size="18">NFT Wave</text>
</g>
<g id="logo_橫">
	<text transform="matrix(1 0 0 1 413.1377 396.0835)" display="none" fill="#C30D23" font-family="'Raleway'" font-size="18">NFT Wave</text>
	<g>
		<g>
			<path fill="#C30D23" d="M46.952,93.666c-25.548,0-46.333-20.785-46.333-46.333S21.404,0.999,46.952,0.999
				c2.354,0,4.264,1.909,4.264,4.264c0,2.355-1.909,4.264-4.264,4.264c-20.846,0-37.805,16.959-37.805,37.805
				s16.959,37.806,37.805,37.806s37.806-16.959,37.806-37.806l-0.005-0.395c-0.014-2.355,1.884-4.275,4.239-4.289
				c0.008,0,0.017,0,0.026,0c2.343,0,4.25,1.892,4.263,4.238l0.005,0.446C93.285,72.88,72.5,93.666,46.952,93.666z"/>
			<g>
				<path fill="#C30D23" d="M26.443,63.481c-2.354,0-4.264-1.909-4.264-4.264V35.448c0-2.355,1.909-4.264,4.264-4.264
					c2.355,0,4.264,1.909,4.264,4.264v23.769C30.707,61.572,28.798,63.481,26.443,63.481z"/>
				<path fill="#C30D23" d="M40.116,77.259c-2.354,0-4.264-1.909-4.264-4.264V21.67c0-2.355,1.909-4.264,4.264-4.264
					c2.355,0,4.264,1.909,4.264,4.264v51.325C44.38,75.35,42.471,77.259,40.116,77.259z"/>
				<path fill="#C30D23" d="M53.789,68.424c-2.354,0-4.264-1.909-4.264-4.264V30.504c0-2.354,1.909-4.264,4.264-4.264
					c2.355,0,4.264,1.909,4.264,4.264V64.16C58.053,66.515,56.144,68.424,53.789,68.424z"/>
				<path fill="#C30D23" d="M67.46,61.062c-2.354,0-4.264-1.909-4.264-4.264V37.867c0-2.354,1.909-4.264,4.264-4.264
					s4.264,1.909,4.264,4.264v18.931C71.724,59.152,69.815,61.062,67.46,61.062z"/>
			</g>
		</g>
		<g>
			<path d="M128.127,21.557h9.216l5.832,16.92l5.904-16.92h9.144l-8.784,23.256l6.48,16.271l14.472-39.672h10.8l-20.447,51.12
				h-8.568l-9-21.456l-8.928,21.456h-8.568l-20.376-51.12h10.655l14.545,39.672l6.336-16.271L128.127,21.557z"/>
			<path d="M178.742,61.514c0-2.418,0.685-4.54,2.052-6.366c1.369-1.826,3.276-3.236,5.725-4.233
				c2.447-0.995,5.256-1.494,8.424-1.494c1.584,0,3.191,0.121,4.824,0.36c1.631,0.24,3.047,0.624,4.248,1.152v-2.008
				c0-2.355-0.709-4.17-2.124-5.443c-1.417-1.272-3.517-1.909-6.3-1.909c-2.064,0-4.032,0.36-5.904,1.08s-3.841,1.776-5.904,3.168
				l-3.096-6.336c2.495-1.632,5.051-2.855,7.668-3.672c2.615-0.815,5.363-1.225,8.244-1.225c5.375,0,9.563,1.325,12.564,3.977
				c2.998,2.65,4.5,6.435,4.5,11.355v11.854c0,0.995,0.18,1.705,0.539,2.13c0.36,0.427,0.947,0.687,1.764,0.781v7.848
				c-0.863,0.144-1.645,0.264-2.34,0.36c-0.695,0.096-1.284,0.144-1.764,0.144c-1.92,0-3.373-0.432-4.355-1.296
				c-0.984-0.864-1.597-1.919-1.836-3.168l-0.217-1.944c-1.633,2.113-3.672,3.744-6.119,4.896c-2.449,1.151-4.945,1.728-7.488,1.728
				c-2.496,0-4.741-0.511-6.732-1.528c-1.992-1.02-3.553-2.419-4.68-4.197C179.306,65.747,178.742,63.744,178.742,61.514z
				 M202.214,63.389c0.528-0.562,0.96-1.123,1.297-1.685c0.335-0.562,0.504-1.076,0.504-1.545v-3.722
				c-1.152-0.468-2.4-0.83-3.744-1.087c-1.345-0.257-2.617-0.387-3.816-0.387c-2.496,0-4.548,0.527-6.156,1.58
				s-2.412,2.445-2.412,4.177c0,0.937,0.264,1.826,0.793,2.668c0.527,0.842,1.296,1.521,2.304,2.036
				c1.008,0.515,2.207,0.771,3.601,0.771c1.439,0,2.854-0.269,4.248-0.807C200.222,64.852,201.351,64.185,202.214,63.389z"/>
			<path d="M231.445,72.532L217.55,35.164h10.008l9.504,28.669l9.576-28.669h9.144l-13.823,37.368H231.445z"/>
			<path d="M271.045,72.532l-13.896-37.368h10.008l9.504,28.669l9.576-28.669h9.144l-13.823,37.368H271.045z"/>
		</g>
	</g>
</g>
</svg>
