<?xml version="1.0" encoding="utf-8"?>
<!-- Generator: Adobe Illustrator 16.0.0, SVG Export Plug-In . SVG Version: 6.00 Build 0)  -->
<!DOCTYPE svg PUBLIC "-//W3C//DTD SVG 1.1//EN" "http://www.w3.org/Graphics/SVG/1.1/DTD/svg11.dtd">
<svg version="1.1" id="圖層_1" xmlns="http://www.w3.org/2000/svg" xmlns:xlink="http://www.w3.org/1999/xlink" x="0px" y="0px"
	 width="215.369px" height="287.698px" viewBox="0 0 215.369 287.698" enable-background="new 0 0 215.369 287.698"
	 xml:space="preserve">
<g>
	<g>
		<path fill="#C30D23" d="M108,212C50.103,212,3,164.897,3,107S50.103,2,108,2c2.761,0,5,2.239,5,5s-2.239,5-5,5
			c-52.383,0-95,42.617-95,95s42.617,95,95,95c52.383,0,95-42.617,95-95l-0.012-0.971c-0.016-2.761,2.209-5.013,4.971-5.029
			c0.01,0,0.02,0,0.03,0c2.748,0,4.983,2.219,5,4.971l0.005,0.392c0.003,0.212,0.007,0.425,0.007,0.638
			C213,164.897,165.897,212,108,212z"/>
		<g>
			<path fill="#C30D23" d="M59.25,140.25c-2.761,0-5-2.239-5-5v-56.5c0-2.761,2.239-5,5-5s5,2.239,5,5v56.5
				C64.25,138.011,62.011,140.25,59.25,140.25z"/>
			<path fill="#C30D23" d="M91.75,173c-2.761,0-5-2.239-5-5V46c0-2.761,2.239-5,5-5s5,2.239,5,5v122
				C96.75,170.761,94.511,173,91.75,173z"/>
			<path fill="#C30D23" d="M124.251,152c-2.761,0-5-2.239-5-5V67c0-2.761,2.239-5,5-5s5,2.239,5,5v80
				C129.251,149.761,127.013,152,124.251,152z"/>
			<path fill="#C30D23" d="M156.75,134.5c-2.761,0-5-2.239-5-5v-45c0-2.761,2.239-5,5-5s5,2.239,5,5v45
				C161.75,132.261,159.511,134.5,156.75,134.5z"/>
		</g>
	</g>
	<g>
		<path d="M38.376,233.106h9.216l5.832,16.92l5.904-16.92h9.144l-8.784,23.256l6.48,16.271l14.472-39.672h10.8l-20.448,51.121
			h-8.568l-9-21.457l-8.928,21.457h-8.568l-20.376-51.121h10.656l14.544,39.672l6.336-16.271L38.376,233.106z"/>
		<path d="M88.992,273.063c0-2.418,0.684-4.54,2.052-6.366s3.276-3.236,5.724-4.233c2.448-0.995,5.256-1.494,8.424-1.494
			c1.584,0,3.191,0.121,4.824,0.36c1.631,0.24,3.047,0.624,4.248,1.152v-2.008c0-2.355-0.708-4.17-2.124-5.443
			c-1.417-1.272-3.517-1.909-6.3-1.909c-2.064,0-4.032,0.36-5.904,1.08s-3.841,1.776-5.904,3.168l-3.096-6.336
			c2.495-1.632,5.051-2.855,7.668-3.672c2.616-0.815,5.364-1.225,8.244-1.225c5.375,0,9.564,1.325,12.564,3.977
			c2.999,2.65,4.5,6.435,4.5,11.355v11.854c0,0.995,0.18,1.705,0.54,2.13c0.36,0.427,0.947,0.687,1.764,0.781v7.848
			c-0.864,0.143-1.645,0.264-2.34,0.359c-0.696,0.096-1.285,0.145-1.764,0.145c-1.92,0-3.373-0.432-4.356-1.297
			c-0.984-0.863-1.596-1.918-1.836-3.168l-0.216-1.944c-1.633,2.114-3.672,3.745-6.12,4.897c-2.448,1.15-4.944,1.727-7.488,1.727
			c-2.496,0-4.741-0.51-6.732-1.527c-1.992-1.02-3.553-2.42-4.68-4.198C89.556,277.297,88.992,275.294,88.992,273.063z
			 M112.464,274.938c0.528-0.562,0.959-1.123,1.296-1.685c0.335-0.562,0.504-1.076,0.504-1.545v-3.722
			c-1.152-0.468-2.4-0.83-3.744-1.087c-1.345-0.257-2.617-0.387-3.816-0.387c-2.497,0-4.548,0.527-6.156,1.58
			c-1.609,1.053-2.412,2.445-2.412,4.177c0,0.937,0.263,1.826,0.792,2.668c0.528,0.842,1.296,1.521,2.304,2.036
			c1.008,0.515,2.207,0.771,3.6,0.771c1.44,0,2.855-0.269,4.248-0.807C110.472,276.401,111.6,275.734,112.464,274.938z"/>
		<path d="M141.695,284.083l-13.896-37.369h10.008l9.504,28.669l9.576-28.669h9.144l-13.824,37.369H141.695z"/>
		<path d="M181.294,284.083l-13.896-37.369h10.008l9.504,28.669l9.576-28.669h9.144l-13.824,37.369H181.294z"/>
	</g>
</g>
</svg>
