<?xml version="1.0" encoding="utf-8"?>
<!-- Generator: Adobe Illustrator 16.0.0, SVG Export Plug-In . SVG Version: 6.00 Build 0)  -->
<!DOCTYPE svg PUBLIC "-//W3C//DTD SVG 1.1//EN" "http://www.w3.org/Graphics/SVG/1.1/DTD/svg11.dtd">
<svg version="1.1" id="圖層_1" xmlns="http://www.w3.org/2000/svg" xmlns:xlink="http://www.w3.org/1999/xlink" x="0px" y="0px"
	 width="296px" height="94.665px" viewBox="0 0 296 94.665" enable-background="new 0 0 296 94.665" xml:space="preserve">
<g id="logo_直" display="none">
	<g display="inline">
		<path fill="none" stroke="#C30D23" stroke-width="10" stroke-linecap="round" stroke-miterlimit="10" d="M268.271,214.004
			c-55.141,0-100,44.861-100,100c0,55.142,44.859,100,100,100s100-44.858,100-100c0-0.334-0.01-0.666-0.012-1"/>
		<g>
			
				<line fill="none" stroke="#C30D23" stroke-width="10" stroke-linecap="round" stroke-miterlimit="10" x1="219.521" y1="285.754" x2="219.521" y2="342.254"/>
			
				<line fill="none" stroke="#C30D23" stroke-width="10" stroke-linecap="round" stroke-miterlimit="10" x1="252.021" y1="253.004" x2="252.021" y2="375.004"/>
			
				<line fill="none" stroke="#C30D23" stroke-width="10" stroke-linecap="round" stroke-miterlimit="10" x1="284.523" y1="274.004" x2="284.523" y2="354.004"/>
			
				<line fill="none" stroke="#C30D23" stroke-width="10" stroke-linecap="round" stroke-miterlimit="10" x1="317.021" y1="291.504" x2="317.021" y2="336.504"/>
		</g>
	</g>
	<text transform="matrix(1 0 0 1 175.8242 491.0864)" display="inline" font-family="'Raleway-Bold'" font-size="72">Wavv</text>
	<text transform="matrix(1 0 0 1 225 526.4175)" display="inline" fill="#C30D23" font-family="'Raleway'" font-size="18">NFT Wave</text>
</g>
<text transform="matrix(1 0 0 1 413.1377 396.0825)" display="none" fill="#C30D23" enable-background="new    " font-family="'Raleway'" font-size="18">NFT Wave</text>
<g>
	<path fill="#C30D23" d="M46.952,93.667c-25.548,0-46.333-20.785-46.333-46.333c0-25.548,20.785-46.334,46.333-46.334
		c2.354,0,4.264,1.909,4.264,4.264s-1.909,4.264-4.264,4.264c-20.846,0-37.805,16.959-37.805,37.805s16.959,37.806,37.805,37.806
		c20.846,0,37.806-16.959,37.806-37.806l-0.005-0.395c-0.014-2.355,1.884-4.275,4.239-4.289c0.008,0,0.017,0,0.026,0
		c2.343,0,4.25,1.892,4.263,4.238l0.005,0.446C93.285,72.879,72.5,93.667,46.952,93.667z"/>
	<g>
		<path fill="#C30D23" d="M26.443,63.481c-2.354,0-4.264-1.908-4.264-4.264V35.448c0-2.355,1.909-4.264,4.264-4.264
			s4.264,1.909,4.264,4.264v23.769C30.707,61.573,28.798,63.481,26.443,63.481z"/>
		<path fill="#C30D23" d="M40.116,77.258c-2.354,0-4.264-1.908-4.264-4.264V21.67c0-2.355,1.909-4.264,4.264-4.264
			s4.264,1.909,4.264,4.264v51.325C44.38,75.35,42.471,77.258,40.116,77.258z"/>
		<path fill="#C30D23" d="M53.789,68.424c-2.354,0-4.264-1.909-4.264-4.264V30.504c0-2.354,1.909-4.264,4.264-4.264
			s4.264,1.909,4.264,4.264v33.657C58.053,66.515,56.144,68.424,53.789,68.424z"/>
		<path fill="#C30D23" d="M67.46,61.062c-2.354,0-4.264-1.909-4.264-4.265v-18.93c0-2.354,1.909-4.264,4.264-4.264
			s4.264,1.909,4.264,4.264v18.93C71.724,59.152,69.815,61.062,67.46,61.062z"/>
	</g>
</g>
<g>
	<path fill="#FFFFFF" d="M128.127,21.557h9.216l5.832,16.92l5.904-16.92h9.144l-8.783,23.256l6.479,16.271l14.472-39.672h10.801
		l-20.447,51.12h-8.568l-9-21.455l-8.928,21.455h-8.568l-20.376-51.12h10.655l14.545,39.672l6.336-16.271L128.127,21.557z"/>
	<path fill="#FFFFFF" d="M178.742,61.514c0-2.418,0.686-4.54,2.052-6.366c1.369-1.825,3.276-3.235,5.726-4.233
		c2.446-0.994,5.256-1.494,8.424-1.494c1.584,0,3.19,0.121,4.824,0.361c1.631,0.239,3.047,0.623,4.248,1.151v-2.009
		c0-2.354-0.709-4.169-2.125-5.442c-1.416-1.272-3.517-1.909-6.3-1.909c-2.063,0-4.032,0.36-5.903,1.08
		c-1.873,0.72-3.842,1.776-5.904,3.168l-3.096-6.336c2.494-1.632,5.051-2.855,7.668-3.672c2.615-0.815,5.363-1.225,8.244-1.225
		c5.375,0,9.563,1.325,12.563,3.977c2.998,2.65,4.5,6.435,4.5,11.355v11.854c0,0.995,0.18,1.705,0.539,2.13
		c0.36,0.427,0.946,0.687,1.764,0.781v7.849c-0.862,0.143-1.646,0.264-2.34,0.359s-1.284,0.145-1.765,0.145
		c-1.92,0-3.373-0.433-4.354-1.297c-0.983-0.863-1.597-1.918-1.836-3.168l-0.217-1.943c-1.634,2.113-3.672,3.744-6.119,4.896
		c-2.448,1.151-4.944,1.728-7.487,1.728c-2.496,0-4.742-0.51-6.732-1.527c-1.992-1.02-3.553-2.419-4.68-4.197
		C179.307,65.747,178.742,63.745,178.742,61.514z M202.214,63.389c0.528-0.563,0.96-1.123,1.298-1.686
		c0.334-0.562,0.504-1.076,0.504-1.545v-3.722c-1.152-0.468-2.4-0.83-3.744-1.087c-1.346-0.258-2.617-0.387-3.816-0.387
		c-2.496,0-4.548,0.527-6.156,1.58c-1.607,1.053-2.412,2.444-2.412,4.176c0,0.938,0.264,1.826,0.793,2.669
		c0.527,0.842,1.297,1.521,2.305,2.036c1.008,0.515,2.207,0.771,3.601,0.771c1.438,0,2.854-0.269,4.248-0.807
		C200.223,64.852,201.352,64.185,202.214,63.389z"/>
	<path fill="#FFFFFF" d="M231.445,72.532L217.55,35.164h10.009l9.504,28.668l9.576-28.668h9.144l-13.823,37.368H231.445z"/>
	<path fill="#FFFFFF" d="M271.045,72.532l-13.896-37.368h10.009l9.504,28.668l9.575-28.668h9.145l-13.822,37.368H271.045z"/>
</g>
</svg>
