<?xml version="1.0" encoding="utf-8"?>
<!-- Generator: Adobe Illustrator 16.0.0, SVG Export Plug-In . SVG Version: 6.00 Build 0)  -->
<!DOCTYPE svg PUBLIC "-//W3C//DTD SVG 1.1//EN" "http://www.w3.org/Graphics/SVG/1.1/DTD/svg11.dtd">
<svg version="1.1" id="Layer_1" xmlns="http://www.w3.org/2000/svg" xmlns:xlink="http://www.w3.org/1999/xlink" x="0px" y="0px"
	 width="595.279px" height="511px" viewBox="0 165.445 595.279 511" enable-background="new 0 165.445 595.279 511"
	 xml:space="preserve">
<g transform="translate(0 -562.36)">
	<g>
		<g>
			<path fill="#FFFFFF" d="M401.259,731.015H220.415v-0.185c-11.649,0-21.45,6.842-25.333,17.566l-69.896,212.649
				c-13.684-10.725-30.141-16.458-47.522-16.458C34.948,944.588,0,979.537,0,1022.252c0,42.715,34.948,77.662,77.663,77.662
				s66.938-34.023,76.738-63.055l84.505-254.439h126.295L306.03,961.046c-12.574-10.725-29.216-16.458-46.598-16.458
				c-42.715,0-77.663,34.949-77.663,77.664c0,42.715,34.948,77.662,77.663,77.662c42.714-0.924,66.014-34.023,75.813-63.055
				l91.347-271.821C431.4,748.581,419.75,731.015,401.259,731.015z M77.663,1048.324c-14.608,0-26.258-11.65-26.258-26.258
				s11.649-26.258,26.258-26.258c14.607,0,26.257,11.65,26.257,26.258S92.271,1048.324,77.663,1048.324z M259.246,1048.324
				c-14.607,0-26.257-11.65-26.257-26.258s11.834-26.258,26.257-26.258c14.608,0,25.333,11.65,25.333,26.258
				S273.855,1048.324,259.246,1048.324z"/>
			<path fill="#FFFFFF" d="M595.232,1119.145c0-14.607-11.649-26.258-26.257-26.258H504.81v-64.164
				c0.185-14.422-11.465-26.072-26.072-26.072c-14.608,0-26.258,11.65-25.333,26.258v64.164h-65.089c-34.949,0-34.949,52.33,0,52.33
				h65.089v64.164c-0.925,34.949,52.515,34.949,51.405,0v-64.164h64.165C583.582,1145.402,596.156,1133.754,595.232,1119.145z"/>
			<path fill="#FFFFFF" d="M478.738,1002.651L478.738,1002.651L478.738,1002.651z"/>
		</g>
	</g>
</g>
</svg>
