<?xml version="1.0" encoding="utf-8"?>
<!-- Generator: Adobe Illustrator 16.0.0, SVG Export Plug-In . SVG Version: 6.00 Build 0)  -->
<!DOCTYPE svg PUBLIC "-//W3C//DTD SVG 1.1//EN" "http://www.w3.org/Graphics/SVG/1.1/DTD/svg11.dtd">
<svg version="1.1" id="圖層_1" xmlns="http://www.w3.org/2000/svg" xmlns:xlink="http://www.w3.org/1999/xlink" x="0px" y="0px"
	 width="16px" height="16.188px" viewBox="0 -0.078 16 16.188" enable-background="new 0 -0.078 16 16.188" xml:space="preserve">
<g>
	<path fill="#FFFFFF" d="M6.325,13.729c0,1.289-1.305,2.332-2.914,2.332c-1.609,0-2.914-1.043-2.914-2.332s1.305-2.33,2.914-2.33
		C5.02,11.398,6.325,12.439,6.325,13.729z"/>
	<path fill="#FFFFFF" d="M6.325,2.074v11.654H5.159V2.074H6.325z"/>
	<path fill="#FFFFFF" d="M5.159,1.864c0-0.556,0.393-1.033,0.938-1.143l3.499-0.7c0.629-0.125,1.243,0.284,1.369,0.915
		c0.016,0.075,0.021,0.152,0.021,0.229V3.24L5.159,4.405V1.864z"/>
</g>
<path fill="#FFFFFF" d="M15.073,9.622h-2.572V7.05c0-0.276-0.223-0.5-0.5-0.5c-0.275,0-0.5,0.224-0.5,0.5v2.572H8.929
	c-0.276,0-0.5,0.225-0.5,0.5c0,0.277,0.224,0.5,0.5,0.5h2.572v2.572c0,0.275,0.225,0.5,0.5,0.5c0.277,0,0.5-0.225,0.5-0.5v-2.572
	h2.572c0.276,0,0.5-0.223,0.5-0.5C15.573,9.847,15.35,9.622,15.073,9.622z"/>
</svg>
