<?xml version="1.0" encoding="utf-8"?>
<!-- Generator: Adobe Illustrator 16.0.0, SVG Export Plug-In . SVG Version: 6.00 Build 0)  -->
<!DOCTYPE svg PUBLIC "-//W3C//DTD SVG 1.1//EN" "http://www.w3.org/Graphics/SVG/1.1/DTD/svg11.dtd">
<svg version="1.1" id="圖層_1" xmlns="http://www.w3.org/2000/svg" xmlns:xlink="http://www.w3.org/1999/xlink" x="0px" y="0px"
	 width="16px" height="16px" viewBox="0 0 16 16" enable-background="new 0 0 16 16" xml:space="preserve">
<g>
	<path fill="#FFFFFF" d="M6.325,13.729c0,1.288-1.305,2.331-2.914,2.331c-1.609,0-2.914-1.043-2.914-2.331
		c0-1.289,1.305-2.331,2.914-2.331C5.02,11.398,6.325,12.44,6.325,13.729z"/>
	<path fill="#FFFFFF" d="M6.325,2.074v11.655H5.159V2.074H6.325z"/>
	<path fill="#FFFFFF" d="M5.159,1.864c0-0.556,0.393-1.033,0.938-1.143l3.498-0.7c0.63-0.125,1.244,0.284,1.37,0.915
		c0.016,0.075,0.021,0.152,0.021,0.229V3.24L5.159,4.405V1.864z"/>
	<path fill="#FFFFFF" d="M11.952,6.627c0.162,0,0.297,0.133,0.297,0.295v2.96h2.957c0.166,0,0.297,0.132,0.297,0.295
		s-0.131,0.296-0.297,0.296h-2.957v2.96c0,0.163-0.135,0.296-0.297,0.296c-0.163,0-0.297-0.133-0.297-0.296v-2.96H8.698
		c-0.165,0-0.297-0.133-0.297-0.296s0.132-0.295,0.297-0.295h2.957v-2.96C11.655,6.76,11.789,6.627,11.952,6.627z"/>
</g>
</svg>
